<svg width="35" height="34" viewBox="0 0 35 34" fill="none" xmlns="http://www.w3.org/2000/svg">
<path d="M14.5327 13.1293C14.3788 12.6307 14.1664 12.1844 13.8956 11.7905C13.6309 11.3904 13.3108 11.0488 12.9354 10.7656C12.5661 10.4825 12.1413 10.2701 11.6612 10.1286C11.1811 9.98082 10.6579 9.90696 10.0916 9.90696C9.07599 9.90696 8.17117 10.1624 7.37713 10.6733C6.5831 11.1842 5.95833 11.9351 5.50284 12.9261C5.0535 13.911 4.82884 15.1113 4.82884 16.527C4.82884 17.955 5.0535 19.1645 5.50284 20.1555C5.95218 21.1465 6.57694 21.9006 7.37713 22.4176C8.17732 22.9285 9.10677 23.1839 10.1655 23.1839C11.1257 23.1839 11.9567 22.9993 12.6584 22.63C13.3662 22.2607 13.911 21.7375 14.2926 21.0604C14.6742 20.3771 14.8651 19.5769 14.8651 18.6598L15.6406 18.7798H10.5071V16.1023H18.1797V18.3736C18.1797 19.9924 17.835 21.3928 17.1456 22.5746C16.4562 23.7564 15.5083 24.6674 14.3018 25.3075C13.0954 25.9415 11.7105 26.2585 10.147 26.2585C8.40507 26.2585 6.87547 25.8677 5.55824 25.0859C4.24716 24.2981 3.2223 23.1809 2.48366 21.7344C1.75118 20.2817 1.38494 18.5582 1.38494 16.5639C1.38494 15.0374 1.60038 13.674 2.03125 12.4737C2.46828 11.2734 3.07765 10.2547 3.85938 9.41761C4.6411 8.57434 5.55824 7.93418 6.6108 7.49716C7.66335 7.05398 8.80824 6.83239 10.0455 6.83239C11.0919 6.83239 12.0675 6.98627 12.9723 7.29403C13.8771 7.59564 14.6804 8.02651 15.3821 8.58665C16.09 9.14678 16.6716 9.81155 17.1271 10.581C17.5826 11.3504 17.8812 12.1998 18.0227 13.1293H14.5327Z" fill="black"/>
<path d="M18.8651 26V7.09091H26.1037C27.4702 7.09091 28.6058 7.30634 29.5107 7.73721C30.4216 8.16193 31.1018 8.74361 31.5511 9.48224C32.0066 10.2209 32.2344 11.058 32.2344 11.9936C32.2344 12.763 32.0866 13.4216 31.7912 13.9695C31.4957 14.5111 31.0987 14.9512 30.6001 15.2898C30.1016 15.6283 29.5445 15.8714 28.929 16.0192V16.2038C29.5999 16.2408 30.2431 16.447 30.8587 16.8224C31.4804 17.1918 31.9882 17.715 32.3821 18.392C32.776 19.0691 32.973 19.8878 32.973 20.848C32.973 21.8267 32.736 22.7069 32.2621 23.4886C31.7881 24.2642 31.0741 24.8767 30.12 25.326C29.166 25.7753 27.9657 26 26.5192 26H18.8651ZM22.2905 23.1378H25.9744C27.2178 23.1378 28.1134 22.9008 28.6612 22.4268C29.2152 21.9467 29.4922 21.3312 29.4922 20.5803C29.4922 20.0201 29.3537 19.5154 29.0767 19.0661C28.7997 18.6106 28.4058 18.2536 27.8949 17.995C27.384 17.7304 26.7746 17.598 26.0668 17.598H22.2905V23.1378ZM22.2905 15.1328H25.679C26.2699 15.1328 26.8023 15.0251 27.2763 14.8097C27.7502 14.5881 28.1226 14.2772 28.3935 13.8771C28.6705 13.4709 28.8089 12.9908 28.8089 12.4368C28.8089 11.7043 28.5504 11.1011 28.0334 10.6271C27.5225 10.1532 26.7623 9.91619 25.7528 9.91619H22.2905V15.1328Z" fill="black"/>
</svg>
