<svg width="136" height="24" viewBox="0 0 136 24" fill="none" xmlns="http://www.w3.org/2000/svg">
<path d="M12 2L15.09 8.26L22 9.27L17 14.14L18.18 21.02L12 17.77L5.82 21.02L7 14.14L2 9.27L8.91 8.26L12 2Z" fill="#6511BA"/>
<path d="M40 2L43.09 8.26L50 9.27L45 14.14L46.18 21.02L40 17.77L33.82 21.02L35 14.14L30 9.27L36.91 8.26L40 2Z" fill="#6511BA"/>
<path d="M68 2L71.09 8.26L78 9.27L73 14.14L74.18 21.02L68 17.77L61.82 21.02L63 14.14L58 9.27L64.91 8.26L68 2Z" fill="#6511BA"/>
<path d="M96 2L99.09 8.26L106 9.27L101 14.14L102.18 21.02L96 17.77L89.82 21.02L91 14.14L86 9.27L92.91 8.26L96 2Z" fill="#6511BA"/>
<path d="M124 2L127.09 8.26L134 9.27L129 14.14L130.18 21.02L124 17.77L117.82 21.02L119 14.14L114 9.27L120.91 8.26L124 2Z" fill="#6511BA"/>
</svg>
